<svg xmlns="http://www.w3.org/2000/svg">
  <symbol id="icon-compass" viewBox="0 0 24 24">
    <circle cx="12" cy="12" r="9" fill="none" stroke="currentColor" stroke-width="1.5"/>
    <path d="m15.8 8.2-2.1 5.5-5.5 2.1 2.1-5.5 5.5-2.1Z" fill="none" stroke="currentColor" stroke-width="1.5" stroke-linejoin="round"/>
    <circle cx="12" cy="12" r="1" fill="currentColor"/>
  </symbol>
  <symbol id="icon-map" viewBox="0 0 24 24">
    <path d="m3 5 6-2 6 2 6-2v16l-6 2-6-2-6 2V5Z" fill="none" stroke="currentColor" stroke-width="1.5" stroke-linejoin="round"/>
    <path d="M9 3v16M15 5v16" fill="none" stroke="currentColor" stroke-width="1.5"/>
  </symbol>
  <symbol id="icon-corridor" viewBox="0 0 24 24">
    <path d="M4 4h16v16H4zM8 8h8v12H8z" fill="none" stroke="currentColor" stroke-width="1.5"/>
    <path d="m11 14 2-2 2 2M13 12v5" fill="none" stroke="currentColor" stroke-width="1.5" stroke-linecap="round"/>
  </symbol>
  <symbol id="icon-stairs" viewBox="0 0 24 24">
    <path d="M3 19h4v-4h4v-4h4V7h6" fill="none" stroke="currentColor" stroke-width="1.8" stroke-linejoin="round"/>
    <path d="m16 4 3-2 3 2M19 2v5" fill="none" stroke="currentColor" stroke-width="1.4" stroke-linecap="round"/>
  </symbol>
  <symbol id="icon-vent" viewBox="0 0 24 24">
    <rect x="3" y="5" width="18" height="14" rx="1" fill="none" stroke="currentColor" stroke-width="1.5"/>
    <path d="M7 8v8M10.5 8v8M14 8v8M17.5 8v8" fill="none" stroke="currentColor" stroke-width="1.3"/>
  </symbol>
  <symbol id="icon-terminal" viewBox="0 0 24 24">
    <rect x="3" y="4" width="18" height="13" rx="1" fill="none" stroke="currentColor" stroke-width="1.5"/>
    <path d="m7 8 3 2-3 2M12 13h5M9 21h6M12 17v4" fill="none" stroke="currentColor" stroke-width="1.5" stroke-linecap="round" stroke-linejoin="round"/>
  </symbol>
  <symbol id="icon-archive" viewBox="0 0 24 24">
    <path d="M5 3h14v18H5zM8 7h8M8 11h8M8 15h5" fill="none" stroke="currentColor" stroke-width="1.5" stroke-linecap="round"/>
    <path d="M15 15h1v1h-1z" fill="currentColor"/>
  </symbol>
  <symbol id="icon-key" viewBox="0 0 24 24">
    <circle cx="8" cy="9" r="4" fill="none" stroke="currentColor" stroke-width="1.7"/>
    <path d="m11 12 8 8M15 16l2-2M18 19l2-2" fill="none" stroke="currentColor" stroke-width="1.7" stroke-linecap="round"/>
  </symbol>
  <symbol id="icon-eye" viewBox="0 0 24 24">
    <path d="M2.5 12S6 6.5 12 6.5 21.5 12 21.5 12 18 17.5 12 17.5 2.5 12 2.5 12Z" fill="none" stroke="currentColor" stroke-width="1.5"/>
    <circle cx="12" cy="12" r="2.7" fill="none" stroke="currentColor" stroke-width="1.5"/>
  </symbol>
  <symbol id="icon-hunt" viewBox="0 0 24 24">
    <path d="M5 3c3 4 2 7 1 10M10 2c2 4 1 8 0 12M15 3c1 4 0 7-2 11M20 5c0 4-2 7-5 10" fill="none" stroke="currentColor" stroke-width="1.7" stroke-linecap="round"/>
    <path d="M5 13c4 1 7 3 10 6" fill="none" stroke="currentColor" stroke-width="1.7" stroke-linecap="round"/>
  </symbol>
  <symbol id="icon-mirror" viewBox="0 0 24 24">
    <rect x="5" y="2.5" width="14" height="19" rx="7" fill="none" stroke="currentColor" stroke-width="1.5"/>
    <path d="M12 3v18M9 8.5c1-1 2-1 3 0M12 15c1.2 1 2.4 1 3.6 0" fill="none" stroke="currentColor" stroke-width="1.3" stroke-linecap="round"/>
  </symbol>
  <symbol id="icon-return" viewBox="0 0 24 24">
    <path d="m9 6-5 5 5 5" fill="none" stroke="currentColor" stroke-width="1.8" stroke-linecap="round" stroke-linejoin="round"/>
    <path d="M5 11h9c4 0 6 2 6 6" fill="none" stroke="currentColor" stroke-width="1.8" stroke-linecap="round"/>
  </symbol>
  <symbol id="icon-portal" viewBox="0 0 24 24">
    <ellipse cx="12" cy="12" rx="8" ry="10" fill="none" stroke="currentColor" stroke-width="1.5"/>
    <ellipse cx="12" cy="12" rx="4" ry="7" fill="none" stroke="currentColor" stroke-width="1.4"/>
    <path d="m10 9 4 3-4 3" fill="none" stroke="currentColor" stroke-width="1.4" stroke-linecap="round" stroke-linejoin="round"/>
  </symbol>
  <symbol id="icon-home" viewBox="0 0 24 24">
    <path d="m3 11 9-8 9 8M5 9.5V21h14V9.5M10 21v-7h4v7" fill="none" stroke="currentColor" stroke-width="1.5" stroke-linejoin="round"/>
  </symbol>
  <symbol id="icon-warning" viewBox="0 0 24 24">
    <path d="M12 3 2.5 20h19L12 3Z" fill="none" stroke="currentColor" stroke-width="1.5" stroke-linejoin="round"/>
    <path d="M12 8v6M12 17v.2" fill="none" stroke="currentColor" stroke-width="1.8" stroke-linecap="round"/>
  </symbol>
  <symbol id="icon-lock" viewBox="0 0 24 24">
    <rect x="4" y="10" width="16" height="11" rx="1" fill="none" stroke="currentColor" stroke-width="1.5"/>
    <path d="M8 10V7a4 4 0 0 1 8 0v3M12 14v3" fill="none" stroke="currentColor" stroke-width="1.5" stroke-linecap="round"/>
  </symbol>
  <symbol id="icon-echo" viewBox="0 0 24 24">
    <path d="M8 8a6 6 0 0 0 0 8M12 5a10 10 0 0 0 0 14M16 2a14 14 0 0 0 0 20" fill="none" stroke="currentColor" stroke-width="1.5" stroke-linecap="round"/>
    <circle cx="5" cy="12" r="1.5" fill="currentColor"/>
  </symbol>
  <symbol id="icon-bottle" viewBox="0 0 24 24">
    <path d="M9 3h6M10 3v5l-3 4v9h10v-9l-3-4V3" fill="none" stroke="currentColor" stroke-width="1.5" stroke-linejoin="round"/>
    <path d="M8 15h8" fill="none" stroke="currentColor" stroke-width="1.4"/>
  </symbol>
  <symbol id="icon-clock" viewBox="0 0 24 24">
    <circle cx="12" cy="12" r="9" fill="none" stroke="currentColor" stroke-width="1.5"/>
    <path d="M12 7v5l3 2" fill="none" stroke="currentColor" stroke-width="1.5" stroke-linecap="round"/>
  </symbol>
  <symbol id="icon-ward" viewBox="0 0 24 24">
    <path d="M12 2 4 5v6c0 5.2 3.3 8.6 8 11 4.7-2.4 8-5.8 8-11V5l-8-3Z" fill="none" stroke="currentColor" stroke-width="1.5" stroke-linejoin="round"/>
    <path d="M9 12h6M12 9v6" fill="none" stroke="currentColor" stroke-width="1.5" stroke-linecap="round"/>
  </symbol>
  <symbol id="icon-exit" viewBox="0 0 24 24">
    <path d="M4 3h10v18H4zM14 12h7M18 9l3 3-3 3" fill="none" stroke="currentColor" stroke-width="1.5" stroke-linecap="round" stroke-linejoin="round"/>
    <circle cx="11" cy="12" r=".8" fill="currentColor"/>
  </symbol>
  <symbol id="icon-unknown" viewBox="0 0 24 24">
    <circle cx="12" cy="12" r="9" fill="none" stroke="currentColor" stroke-width="1.5" stroke-dasharray="2.5 2.5"/>
    <path d="M9.5 9a2.7 2.7 0 0 1 5.2 1c0 2-2.7 2.1-2.7 4M12 17v.2" fill="none" stroke="currentColor" stroke-width="1.7" stroke-linecap="round"/>
  </symbol>
  <symbol id="icon-close" viewBox="0 0 24 24">
    <path d="m5 5 14 14M19 5 5 19" fill="none" stroke="currentColor" stroke-width="1.8" stroke-linecap="round"/>
  </symbol>
  <symbol id="icon-sound" viewBox="0 0 24 24">
    <path d="M4 10v4h4l5 4V6l-5 4H4Z" fill="none" stroke="currentColor" stroke-width="1.5" stroke-linejoin="round"/>
    <path d="M16 9c1.7 1.5 1.7 4.5 0 6M18.5 6.5c3.2 3 3.2 8 0 11" fill="none" stroke="currentColor" stroke-width="1.5" stroke-linecap="round"/>
  </symbol>
</svg>
